# xmcd
#
# Track frame offsets: 
#        150
#        14367
#        31755
#        41956
#        52191
#        69102
#        80041
#        85507
#        97033
#        108264
#        118899
#        131110
#        142033
#        153782
#        165556
#        177884
#        192087
#        199782
#        210514
#        221479
#        236308
#        247394
#        257560
#        267779
#        280532
#        294047
#
# Disc length: 4149 seconds
#
# Revision: 4
# Processed by: cddbd v1.5.2PL0 Copyright (c) Steve Scherf et al.
# Submitted via: ExactAudioCopyFreeDBPlugin 1.0
#
DISCID=6e10331a
DTITLE=Various Artist - BEST OF Country and Line Dancing VOL 1
DYEAR=0
DGENRE=Country
TTITLE0=The Hot Billys - Cotton Eyed Joe
TTITLE1=Freddy Fender - Jambalaya
TTITLE2=Mickey Gilley - My Babe
TTITLE3=Johnny Tillotson - Send Me The Pillow You Dream On
TTITLE4=Razzy Bailey - Let Me Be Your Teddy Near
TTITLE5=Don Gibson - Oh Lonesome Me
TTITLE6=Willie Nelson - The Ghost
TTITLE7=Kenny Rogers - Me And Bobby McGee
TTITLE8=Faron Young - Your Cheating Heart
TTITLE9=Billie Joe Spears - I'm So Lonesome I Could Cry
TTITLE10=Lynn Anderson - Stand By Your Man
TTITLE11=Porter Wagoner - Enough To Make A Grown Man Cry
TTITLE12=Waylon Jennings - Crying
TTITLE13=Patsy Cline - Walking After Midnight
TTITLE14=Johnny Paycheck - Take This Job And Shove It
TTITLE15=Donna Fargo - Do I Love You
TTITLE16=Dolly Parton - Puppy Love
TTITLE17=Ferlin Husky - Wings Of A Dove
TTITLE18=Merle Haggard - Silver Wings
TTITLE19=Juice Newton - Queen Of Hearts
TTITLE20=Jack Greene - There Goes My Everything
TTITLE21=Faron Young - Live Fast Love Hard Die Young
TTITLE22=Dave Duddley - Six Days On The Road
TTITLE23=Billie Joe Spears - Dallas
TTITLE24=Willie Nelson - The Last Letter
TTITLE25=Kenny Rogers - Somethings Burning
EXTD=YEAR: 0
EXTT0=
EXTT1=
EXTT2=
EXTT3=
EXTT4=
EXTT5=
EXTT6=
EXTT7=
EXTT8=
EXTT9=
EXTT10=
EXTT11=
EXTT12=
EXTT13=
EXTT14=
EXTT15=
EXTT16=
EXTT17=
EXTT18=
EXTT19=
EXTT20=
EXTT21=
EXTT22=
EXTT23=
EXTT24=
EXTT25=
PLAYORDER=
